<?xml version="1.0" encoding="UTF-8"?>
<svg width="42px" height="10px" viewBox="0 0 42 10" version="1.1" xmlns="http://www.w3.org/2000/svg" xmlns:xlink="http://www.w3.org/1999/xlink">
    <title>Line 2</title>
    <g id="Wireframes" stroke="none" stroke-width="1" fill="none" fill-rule="evenodd" opacity="0.246281942">
        <g id="number-desktop" transform="translate(-338, -500)" fill="#FFFFFF" fill-rule="nonzero">
            <path id="Line-2" d="M371.745131,500.064212 L379.745131,504.564212 C380.084956,504.755364 380.084956,505.244636 379.745131,505.435788 L371.745131,509.935788 C371.504452,510.07117 371.199594,509.98581 371.064212,509.745131 C370.92883,509.504452 371.01419,509.199594 371.254869,509.064212 L377.589,505.5 L339,505.5 C338.723858,505.5 338.5,505.276142 338.5,505 C338.5,504.723858 338.723858,504.5 339,504.5 L377.593,504.5 L371.254869,500.935788 C371.040933,500.815448 370.949717,500.561202 371.027171,500.337152 L371.064212,500.254869 C371.199594,500.01419 371.504452,499.92883 371.745131,500.064212 Z"></path>
        </g>
    </g>
</svg>