<?xml version="1.0" encoding="UTF-8"?>
<svg width="10px" height="36px" viewBox="0 0 10 36" version="1.1" xmlns="http://www.w3.org/2000/svg" xmlns:xlink="http://www.w3.org/1999/xlink">
    <title>Line 2</title>
    <g id="Wireframes" stroke="none" stroke-width="1" fill="none" fill-rule="evenodd" opacity="0.246281942">
        <g id="number-mobile" transform="translate(-117, -622)" fill="#FFFFFF" fill-rule="nonzero">
            <path id="Line-2" d="M131.428057,635.088602 L139.428057,639.588602 C139.767883,639.779755 139.767883,640.269026 139.428057,640.460178 L131.428057,644.960178 C131.187379,645.09556 130.882521,645.0102 130.747139,644.769521 C130.611757,644.528842 130.697117,644.223984 130.937796,644.088602 L137.273,640.524 L105.317073,640.52439 C105.040931,640.52439 104.817073,640.300533 104.817073,640.02439 C104.817073,639.748248 105.040931,639.52439 105.317073,639.52439 L137.273,639.524 L130.937796,635.960178 C130.723859,635.839839 130.632644,635.585592 130.710098,635.361542 L130.747139,635.27926 C130.882521,635.038581 131.187379,634.953221 131.428057,635.088602 Z" transform="translate(122, 640.0244) rotate(-90) translate(-122, -640.0244)"></path>
        </g>
    </g>
</svg>