<?xml version="1.0" encoding="UTF-8"?>
<svg width="11px" height="36px" viewBox="0 0 11 36" version="1.1" xmlns="http://www.w3.org/2000/svg" xmlns:xlink="http://www.w3.org/1999/xlink">
    <title>Line 2</title>
    <g id="Wireframes" stroke="none" stroke-width="1" fill="none" fill-rule="evenodd" opacity="0.246281942">
        <g id="number-mobile" transform="translate(-357, -623)" fill="#FFFFFF" fill-rule="nonzero">
            <path id="Line-2" d="M371.928057,635.454456 L379.928057,639.954456 C380.267883,640.145608 380.267883,640.63488 379.928057,640.826032 L371.928057,645.326032 C371.687379,645.461414 371.382521,645.376053 371.247139,645.135375 C371.111757,644.894696 371.197117,644.589838 371.437796,644.454456 L377.773,640.89 L345.817073,640.890244 C345.540931,640.890244 345.317073,640.666386 345.317073,640.390244 C345.317073,640.114102 345.540931,639.890244 345.817073,639.890244 L377.773,639.89 L371.437796,636.326032 C371.223859,636.205692 371.132644,635.951446 371.210098,635.727396 L371.247139,635.645113 C371.382521,635.404434 371.687379,635.319074 371.928057,635.454456 Z" transform="translate(362.5, 640.3902) rotate(90) translate(-362.5, -640.3902)"></path>
        </g>
    </g>
</svg>